<?xml version="1.0" standalone="no"?>
<!DOCTYPE svg PUBLIC "-//W3C//DTD SVG 20010904//EN"
 "http://www.w3.org/TR/2001/REC-SVG-20010904/DTD/svg10.dtd">
<svg version="1.0" xmlns="http://www.w3.org/2000/svg"
 width="688.000000pt" height="438.000000pt" viewBox="0 0 688.000000 438.000000"
 preserveAspectRatio="xMidYMid meet">

<g transform="translate(0.000000,438.000000) scale(0.100000,-0.100000)"
fill="#000000" stroke="none">
<path d="M2021 4061 c-50 -13 -67 -52 -26 -60 13 -2 16 1 12 13 -6 14 4 16 71
16 151 0 310 -72 384 -174 76 -105 -7 -203 -165 -194 l-52 3 -3 68 -3 67 28 0
c36 0 103 -19 103 -28 0 -5 -5 -13 -12 -20 -9 -9 -8 -12 8 -12 11 0 25 5 32
12 36 36 -15 82 -105 94 -48 6 -53 9 -53 31 0 28 -16 63 -29 63 -5 0 -12 -22
-16 -49 -6 -48 -8 -49 -49 -60 -43 -10 -96 -45 -96 -61 0 -18 62 -80 101 -102
23 -13 39 -29 39 -40 0 -24 30 -35 44 -17 8 10 30 13 79 11 169 -7 272 92 219
211 -53 120 -231 223 -401 232 -42 2 -91 0 -110 -4z m169 -316 c0 -65 -7 -67
-73 -25 -59 37 -60 56 -4 68 78 18 77 18 77 -43z"/>
<path d="M2585 4022 c-49 -31 -58 -47 -51 -96 l7 -43 47 4 c73 8 132 51 132
97 0 19 -56 56 -85 56 -11 0 -33 -8 -50 -18z m3 -49 c-15 -15 -30 -24 -33 -21
-8 7 35 48 49 48 6 0 -2 -12 -16 -27z m106 8 c9 -13 -36 -48 -71 -56 -41 -8
-41 -1 -2 36 30 28 63 37 73 20z"/>
<path d="M3685 3940 c3 -5 15 -10 26 -10 18 0 19 -8 19 -115 0 -114 0 -116
-25 -125 -14 -5 -25 -12 -25 -15 0 -3 36 -5 81 -5 51 0 78 4 74 10 -3 6 -15
10 -26 10 -16 0 -19 8 -20 48 -2 65 2 186 7 191 10 11 54 -21 60 -44 7 -29
-18 -75 -41 -75 -8 0 -15 -7 -15 -15 0 -14 4 -14 38 0 76 32 101 87 58 129
-23 24 -32 26 -121 26 -62 0 -94 -4 -90 -10z"/>
<path d="M3960 3940 c0 -5 9 -10 20 -10 19 0 20 -7 20 -120 0 -113 -1 -120
-20 -120 -11 0 -20 -4 -20 -10 0 -6 32 -10 76 -10 47 0 73 4 69 10 -3 6 -15
10 -26 10 -18 0 -19 8 -19 120 0 112 1 120 19 120 11 0 23 5 26 10 4 6 -22 10
-69 10 -44 0 -76 -4 -76 -10z"/>
<path d="M4160 3940 c0 -5 6 -10 14 -10 8 0 35 -26 60 -58 l45 -59 -46 -58
c-25 -31 -54 -60 -64 -62 -38 -10 -18 -23 36 -23 50 0 73 12 43 22 -8 3 -3 20
16 52 l28 48 65 -71 c57 -63 93 -87 93 -63 0 5 -27 46 -61 91 l-60 83 37 45
c21 25 46 48 56 51 36 9 17 22 -32 22 -46 0 -67 -13 -38 -22 7 -3 3 -16 -13
-37 l-24 -32 -22 26 c-25 28 -29 45 -13 45 6 0 10 5 10 10 0 6 -28 10 -65 10
-37 0 -65 -4 -65 -10z"/>
<path d="M4570 3941 c0 -5 6 -11 14 -13 10 -2 3 -31 -31 -120 -36 -92 -50
-118 -64 -118 -11 0 -19 -4 -19 -10 0 -6 27 -10 63 -10 56 1 60 2 43 15 -16
12 -18 20 -10 57 9 42 10 43 52 46 40 3 43 1 57 -32 19 -45 19 -66 0 -66 -8 0
-15 -4 -15 -10 0 -6 30 -10 70 -10 40 0 70 4 70 10 0 6 -8 10 -19 10 -14 0
-27 22 -54 93 -45 117 -53 147 -38 147 6 0 11 5 11 10 0 6 -28 10 -65 10 -36
0 -65 -4 -65 -9z m64 -65 c3 -13 9 -31 12 -40 5 -13 -1 -16 -26 -16 -25 0 -31
3 -26 16 3 9 9 27 12 40 3 13 10 24 14 24 4 0 11 -11 14 -24z"/>
<path d="M4830 3940 c0 -5 9 -10 20 -10 19 0 20 -7 20 -120 0 -113 -1 -120
-20 -120 -11 0 -20 -4 -20 -10 0 -6 32 -10 76 -10 47 0 73 4 69 10 -3 6 -15
10 -26 10 -16 0 -19 7 -19 49 0 30 5 51 13 54 6 3 41 -26 77 -64 43 -46 73
-69 88 -69 20 0 17 7 -34 75 l-57 76 26 27 c33 35 35 75 5 96 -26 19 -218 23
-218 6z m158 -26 c42 -29 14 -94 -40 -94 -15 0 -18 9 -18 55 0 61 14 70 58 39z"/>
<path d="M2967 3884 c-3 -3 1 -28 9 -56 9 -27 14 -61 12 -75 -3 -23 -6 -20
-38 29 -19 29 -42 53 -50 53 -10 0 -20 -18 -28 -50 -17 -67 -12 -119 11 -123
14 -3 17 5 17 52 0 31 3 56 8 56 4 0 19 -21 34 -46 15 -24 35 -47 44 -51 44
-17 60 96 24 167 -21 40 -33 53 -43 44z"/>
<path d="M2688 3844 c-37 -16 -58 -48 -41 -65 5 -5 39 -13 77 -18 78 -11 95
-21 70 -42 -22 -18 -115 -19 -122 0 -4 11 2 12 29 6 60 -13 99 -4 69 16 -25
16 -102 6 -114 -14 -9 -15 -6 -23 17 -43 54 -47 167 -20 167 40 0 37 -32 57
-99 63 -34 3 -61 9 -61 14 0 4 30 10 68 14 78 7 92 11 92 24 0 24 -98 27 -152
5z"/>
<path d="M3115 3853 c-56 -7 -62 -12 -36 -32 20 -16 21 -19 8 -32 -18 -18 -31
-90 -22 -119 8 -27 59 -27 103 0 40 25 33 42 -17 40 -52 -3 -53 -2 -41 20 8
14 21 20 45 20 24 0 35 5 35 15 0 10 -10 15 -30 15 -20 0 -30 5 -30 15 0 11
11 15 39 15 44 0 59 13 41 35 -12 15 -33 16 -95 8z"/>
<path d="M3264 3825 c-23 -31 -29 -49 -30 -94 -1 -31 -9 -80 -18 -110 -22 -74
-21 -118 3 -130 16 -9 20 -6 25 23 4 19 13 57 21 84 14 45 19 50 49 56 46 9
106 75 106 117 0 91 -61 89 -130 -4 -35 -48 -41 -28 -9 34 28 56 19 70 -17 24z
m122 -68 c-4 -19 -52 -57 -70 -57 -9 0 12 38 43 79 21 27 27 31 29 17 2 -10 1
-27 -2 -39z"/>
<path d="M2575 3774 c-8 -79 4 -129 28 -122 26 9 19 198 -8 198 -9 0 -15 -23
-20 -76z"/>
<path d="M3540 3790 c0 -15 5 -20 18 -18 9 2 17 10 17 18 0 8 -8 16 -17 18
-13 2 -18 -3 -18 -18z"/>
<path d="M653 3202 c-7 -4 -16 -30 -19 -58 -3 -27 -15 -73 -25 -102 -14 -39
-19 -80 -19 -153 0 -108 6 -138 99 -529 32 -138 65 -310 60 -314 -2 -2 -40
-23 -84 -47 -105 -56 -243 -149 -279 -187 -23 -24 -27 -36 -22 -58 6 -24 10
-26 42 -21 19 3 114 31 211 62 96 31 178 54 181 51 3 -3 23 -70 44 -148 44
-157 52 -186 96 -333 43 -139 65 -217 67 -235 1 -8 16 -60 33 -115 17 -55 40
-136 52 -180 12 -44 30 -107 40 -140 11 -33 38 -120 60 -193 27 -88 45 -130
52 -126 7 5 9 1 5 -9 -3 -10 -2 -17 3 -17 6 0 10 -7 10 -16 0 -8 5 -25 11 -36
9 -17 13 -18 20 -7 13 20 11 31 -3 23 -9 -5 -9 -2 1 9 10 12 12 35 8 80 -3 34
-3 53 0 42 3 -11 12 -28 20 -37 8 -9 17 -35 20 -57 3 -23 10 -44 14 -47 5 -3
9 -17 10 -32 0 -15 5 -36 10 -47 7 -15 8 -12 3 12 -3 21 -1 33 5 33 6 0 11 5
11 11 0 5 -4 8 -9 4 -6 -3 -12 16 -16 42 -3 27 -7 55 -9 64 -2 9 3 16 11 16 8
0 12 -6 8 -16 -5 -13 -4 -14 7 -3 10 10 10 19 0 45 -10 29 -10 30 3 13 8 -11
15 -27 16 -35 0 -9 7 -34 15 -56 l14 -40 -6 50 c-11 90 -12 125 -4 125 4 0 11
-16 14 -36 7 -36 45 -108 47 -89 1 6 1 27 1 48 -1 24 3 35 9 31 8 -4 9 1 4 17
-17 59 -17 59 -1 53 8 -3 17 -13 20 -22 2 -10 2 15 -1 53 l-5 71 38 29 c22 17
77 56 124 88 183 124 352 275 447 402 58 77 147 256 178 360 64 217 77 275 82
366 7 118 -9 180 -69 269 -83 125 -136 159 -293 191 -173 34 -371 23 -636 -36
-98 -22 -155 -31 -159 -24 -4 5 -15 72 -24 147 -19 143 -49 279 -66 296 -6 6
-10 19 -10 31 0 16 -2 17 -10 5 -8 -12 -10 -11 -10 7 0 27 -18 71 -39 97 -9
10 -21 34 -27 55 -6 20 -15 35 -21 34 -6 -1 -13 11 -17 28 -12 60 -117 174
-196 212 -60 29 -128 42 -147 29z m1124 -1157 c76 -23 131 -67 160 -131 23
-50 24 -64 20 -157 -2 -56 -10 -134 -16 -174 -11 -67 -18 -93 -55 -220 -17
-60 -89 -186 -141 -250 -22 -26 -71 -79 -109 -118 -38 -38 -59 -56 -45 -40 13
17 -5 0 -39 -37 -35 -37 -70 -68 -76 -68 -11 0 -40 114 -35 137 1 4 0 15 -4
23 -24 62 -121 534 -114 554 2 6 0 22 -5 36 -13 34 -26 102 -61 313 -14 87
-14 89 7 96 17 7 127 27 236 44 67 11 230 6 277 -8z m464 -359 c-6 -30 -24
-79 -42 -108 -17 -29 -28 -44 -24 -33 3 11 13 52 22 90 9 39 22 77 29 86 8 8
15 26 15 40 2 22 2 23 6 2 2 -12 0 -47 -6 -77z m-126 -18 c-4 -29 -11 -57 -16
-62 -5 -6 -9 -17 -9 -25 0 -14 1 -14 10 -1 9 13 10 13 10 0 0 -27 -12 -60 -22
-60 -5 0 -6 6 -3 13 4 6 -1 3 -9 -7 -9 -11 -16 -27 -16 -35 0 -14 2 -14 10 -1
13 21 23 5 10 -17 -6 -10 -17 -38 -24 -63 -7 -25 -17 -44 -23 -43 -8 2 -93
-146 -93 -163 0 -18 24 17 51 74 17 37 33 62 35 57 7 -19 -63 -140 -80 -139
-9 1 -25 -14 -37 -32 -11 -19 -22 -34 -25 -34 -4 0 12 43 28 73 6 12 12 37 14
55 1 19 13 45 25 58 12 13 17 24 11 24 -6 0 9 44 34 98 53 113 67 149 83 217
10 42 24 64 39 65 2 0 1 -24 -3 -52z m86 -131 c-10 -9 -11 -8 -5 6 3 10 9 15
12 12 3 -3 0 -11 -7 -18z m-55 -63 c-15 -67 -111 -282 -122 -271 -3 2 4 22 15
43 11 20 18 41 16 45 -3 4 2 9 10 13 8 3 15 14 15 24 0 10 3 22 7 26 4 3 8 12
9 19 2 7 12 38 23 69 18 49 23 68 30 107 1 2 3 2 6 -1 3 -3 -1 -36 -9 -74z
m46 -19 c-5 -31 -22 -44 -22 -18 0 15 17 43 26 43 1 0 -1 -11 -4 -25z m-97
-225 c-9 -16 -17 -30 -20 -30 -2 0 1 14 6 30 6 17 15 30 20 30 5 0 3 -13 -6
-30z m-201 -39 c-15 -28 -34 -57 -43 -64 -9 -7 -6 3 7 25 13 20 30 51 39 68 8
17 17 29 20 26 3 -2 -7 -28 -23 -55z m5 -203 c-2 -2 -24 -21 -49 -43 l-45 -40
44 47 c25 26 47 45 50 43 2 -3 2 -6 0 -7z m-289 -251 c0 -2 -10 -12 -22 -23
l-23 -19 19 23 c18 21 26 27 26 19z m-373 -329 c-3 -8 -6 -5 -6 6 -1 11 2 17
5 13 3 -3 4 -12 1 -19z m52 -60 c1 -5 -3 -8 -7 -8 -4 0 -8 12 -9 28 -1 23 -1
24 7 7 5 -11 9 -23 9 -27z"/>
<path d="M1309 1988 c-1 -7 -1 -19 0 -25 1 -8 -5 -10 -15 -6 -16 6 -17 -1 -10
-67 3 -41 13 -101 20 -135 8 -33 22 -118 31 -190 19 -141 25 -172 32 -142 3 9
9 14 15 10 8 -4 9 0 4 12 -12 32 -44 298 -40 340 3 33 2 35 -5 15 -5 -14 -10
-23 -11 -20 -6 14 -11 93 -11 153 1 37 -1 67 -4 67 -3 0 -6 -6 -6 -12z"/>
<path d="M1361 1694 c0 -11 3 -14 6 -6 3 7 2 16 -1 19 -3 4 -6 -2 -5 -13z"/>
<path d="M3155 2949 c-231 -18 -492 -75 -503 -109 -4 -10 -54 -47 -106 -77
-21 -13 -21 -13 4 -14 41 -2 94 3 104 8 23 15 589 -8 669 -26 50 -12 121 -72
174 -147 44 -63 56 -105 69 -255 l7 -76 -92 -7 c-99 -8 -261 -44 -351 -77 -81
-30 -211 -104 -298 -169 -271 -201 -425 -536 -317 -687 39 -54 125 -116 211
-152 185 -78 361 -106 597 -95 166 8 152 17 156 -101 1 -38 6 -72 10 -75 5 -3
11 -41 15 -85 4 -58 3 -74 -4 -56 -17 39 -20 19 -6 -29 12 -39 14 -42 18 -20
4 19 6 15 8 -15 8 -122 17 -75 18 90 1 105 5 201 9 213 6 15 8 -13 6 -75 -5
-119 11 -107 21 17 4 47 12 89 18 95 8 7 9 6 3 -3 -4 -7 -4 -70 0 -140 5 -79
11 -119 16 -107 7 19 8 19 8 1 1 -11 4 -16 8 -13 3 4 6 43 4 86 -1 44 2 82 7
85 5 3 7 -6 4 -19 -2 -15 0 -25 7 -25 7 0 11 -32 12 -92 1 -101 4 -104 14 -15
4 38 11 57 20 57 7 0 16 -8 18 -17 4 -17 11 77 8 104 -1 6 3 14 9 18 6 3 10
-4 10 -17 0 -19 2 -20 11 -8 8 11 9 5 5 -24 -3 -22 -10 -43 -17 -46 -8 -6 -8
-9 0 -11 7 -3 8 -24 3 -71 -9 -70 2 -97 11 -30 14 92 23 126 34 129 6 2 14 -4
17 -14 3 -10 3 -1 0 20 -3 20 -2 54 2 75 7 34 8 35 14 12 6 -24 14 2 35 115 3
16 20 24 77 39 76 19 181 57 175 62 -1 2 -36 -7 -77 -20 -41 -13 -96 -27 -121
-31 l-46 -7 13 74 c21 115 66 498 64 546 0 24 3 58 9 75 5 18 12 93 16 167 9
192 14 272 25 376 12 114 2 173 -47 271 -125 249 -381 354 -788 322z m425
-947 c0 -43 -5 -114 -10 -158 -6 -44 -12 -134 -15 -200 -2 -70 -12 -152 -24
-199 -10 -44 -17 -92 -14 -107 3 -16 1 -28 -5 -28 -6 0 -9 -23 -6 -57 1 -32 1
-49 -2 -38 -9 29 -26 45 -24 20 1 -11 2 -42 1 -70 l-1 -50 -147 7 c-199 9
-349 52 -486 140 -59 38 -77 71 -77 141 0 142 86 293 232 410 51 41 110 80
131 87 21 7 96 39 165 72 116 56 239 104 270 107 9 1 12 -21 12 -77z m96 -199
c-11 -11 -17 4 -9 23 7 18 8 18 11 1 2 -10 1 -21 -2 -24z m-29 -170 c-3 -10
-5 -4 -5 12 0 17 2 24 5 18 2 -7 2 -21 0 -30z m-27 -325 c0 -23 -3 -29 -9 -19
-8 12 -4 51 5 51 2 0 4 -15 4 -32z m235 -85 c-10 -40 -17 -20 -9 23 5 24 9 32
12 21 2 -10 1 -30 -3 -44z m-25 -217 c0 -3 -4 -8 -10 -11 -5 -3 -10 -1 -10 4
0 6 5 11 10 11 6 0 10 -2 10 -4z m-80 -30 c0 -3 -4 -8 -10 -11 -5 -3 -10 -1
-10 4 0 6 5 11 10 11 6 0 10 -2 10 -4z"/>
<path d="M3491 1364 c0 -11 3 -14 6 -6 3 7 2 16 -1 19 -3 4 -6 -2 -5 -13z"/>
<path d="M5420 2625 c-48 -36 -131 -59 -332 -95 -346 -60 -396 -74 -545 -146
-77 -37 -106 -58 -175 -128 -148 -148 -202 -251 -219 -409 -10 -101 -7 -140
23 -266 32 -137 94 -246 207 -365 179 -187 444 -328 783 -417 134 -35 171 -41
298 -46 335 -13 571 50 728 193 56 51 78 80 116 156 57 114 74 195 77 363 2
126 2 132 -31 214 -77 195 -327 496 -520 625 -77 52 -130 106 -158 161 l-21
40 -1 -76 c0 -91 12 -113 145 -264 146 -166 206 -270 249 -425 39 -142 32
-339 -15 -466 -26 -69 -106 -191 -149 -227 -43 -37 -152 -91 -221 -111 -79
-22 -263 -39 -350 -32 -80 7 -199 34 -287 66 -250 93 -424 275 -504 530 -46
150 -24 344 55 468 90 141 112 161 277 250 124 66 241 109 349 126 230 38 379
94 421 160 17 28 17 62 -1 50 -5 -3 -6 10 -4 28 4 26 3 29 -4 13 -7 -14 -10
-16 -11 -5 -1 10 -5 7 -12 -7 -16 -34 -27 -28 -23 12 2 19 -1 35 -6 35 -5 0
-9 -5 -9 -11 0 -6 -7 -8 -16 -5 -8 3 -12 2 -9 -4 3 -6 -1 -10 -9 -10 -9 0 -15
3 -15 8 4 21 -3 23 -22 6 -20 -18 -20 -18 -14 9 9 34 -2 34 -45 2z m-966 -467
c-11 -13 -32 -42 -47 -65 -31 -49 -47 -59 -20 -12 22 37 72 99 80 99 4 0 -2
-10 -13 -22z m1610 -893 c-4 -8 -11 -15 -16 -15 -6 0 -5 6 2 15 7 8 14 15 16
15 2 0 1 -7 -2 -15z m41 -92 c-7 -41 -34 -98 -41 -90 -3 2 2 20 10 38 8 19 17
46 21 62 8 41 18 32 10 -10z m-115 -67 c0 -2 -8 -10 -17 -17 -16 -13 -17 -12
-4 4 13 16 21 21 21 13z m63 -51 c-3 -9 -8 -14 -10 -11 -3 3 -2 9 2 15 9 16
15 13 8 -4z m-73 -93 c0 -5 -21 -23 -47 -41 l-48 -33 45 41 c49 44 50 45 50
33z"/>
<path d="M5365 2226 c-62 -35 -260 -106 -293 -106 -20 0 20 -20 56 -28 90 -21
237 36 296 114 60 78 52 81 -59 20z"/>
<path d="M5540 2239 c0 -11 -50 -99 -99 -172 -61 -94 -202 -222 -297 -270 -43
-22 -46 -25 -26 -32 42 -13 179 24 248 66 94 58 218 301 199 390 -6 28 -25 41
-25 18z"/>
<path d="M5607 2161 c-7 -28 19 -169 43 -233 11 -30 35 -68 52 -85 31 -29 145
-76 160 -67 4 3 -22 45 -58 94 -36 49 -85 131 -108 182 -24 51 -53 101 -64
111 -19 17 -20 17 -25 -2z"/>
<path d="M4130 1190 c-9 -6 -10 -10 -3 -10 6 0 15 5 18 10 8 12 4 12 -15 0z"/>
<path d="M3562 770 c0 -14 2 -19 5 -12 2 6 2 18 0 25 -3 6 -5 1 -5 -13z"/>
<path d="M3620 741 c0 -5 5 -13 10 -16 6 -3 10 -2 10 4 0 5 -4 13 -10 16 -5 3
-10 2 -10 -4z"/>
<path d="M6075 692 c-27 -2 -53 -8 -56 -14 -13 -21 -11 -549 2 -564 9 -11 61
-14 274 -14 235 0 265 2 284 17 21 18 21 23 19 298 l-3 280 -235 0 c-129 0
-257 -1 -285 -3z m382 -26 c5 -9 28 -16 58 -18 l50 -3 3 -58 c4 -72 -7 -87
-64 -87 -49 0 -59 16 -16 26 49 11 52 13 52 49 0 35 0 35 -45 35 l-45 0 0 -45
c0 -47 -16 -65 -59 -65 -27 0 -35 -47 -27 -158 7 -108 -3 -196 -24 -200 -13
-2 -15 29 -13 240 2 269 1 268 70 268 23 0 33 5 33 15 0 19 17 19 27 1z m-169
-12 c6 -2 12 -8 12 -14 0 -6 -33 -10 -87 -9 -49 1 -99 -2 -113 -5 -27 -7 -59
8 -47 21 17 17 187 22 235 7z m-1 -61 c9 -23 -9 -33 -71 -39 -82 -7 -118 2
-114 29 3 19 11 23 58 27 74 7 120 1 127 -17z m-205 -20 l3 -28 95 -3 c83 -2
97 -5 108 -23 9 -14 10 -25 2 -39 -9 -17 -23 -20 -105 -22 -55 -2 -95 -7 -95
-13 0 -6 41 -12 92 -15 95 -5 127 -15 110 -32 -5 -5 -19 -5 -36 2 -15 5 -64
10 -110 10 -80 0 -106 9 -106 36 0 33 31 44 126 44 128 0 121 19 -8 22 l-103
3 -3 43 c-2 32 0 42 12 42 9 0 16 -11 18 -27z m476 -131 c16 -20 13 -297 -3
-297 -5 0 -11 26 -13 58 l-3 57 -67 0 c-62 0 -104 11 -91 24 3 3 39 8 80 10
63 4 74 7 74 23 0 15 -11 19 -75 23 -41 3 -75 10 -75 15 0 6 32 11 70 13 77 3
90 10 80 41 -5 17 -16 21 -77 23 -44 2 -73 8 -75 15 -9 26 154 21 175 -5z
m-473 -62 c9 -14 82 -12 88 3 3 8 9 6 20 -8 10 -12 12 -24 6 -29 -5 -6 -9 -32
-9 -58 l0 -48 -65 0 -65 0 0 48 c0 26 -5 53 -11 59 -8 8 -8 15 2 27 16 18 26
20 34 6z m192 4 c42 -11 36 -64 -8 -64 -27 0 -33 -17 -39 -99 -3 -50 -9 -76
-18 -79 -11 -3 -12 13 -7 84 7 92 18 114 57 114 32 0 19 19 -17 26 -19 3 -35
10 -35 15 0 10 34 12 67 3z m21 -132 c2 -32 -1 -52 -7 -52 -6 0 -12 19 -12 43
l-1 42 -11 -49 c-9 -45 -8 -51 12 -67 28 -23 27 -31 -6 -27 -27 3 -28 6 -31
65 -3 69 10 106 36 101 13 -2 18 -16 20 -56z m-108 -36 c0 -9 -7 -16 -15 -16
-8 0 -15 -7 -15 -15 0 -8 7 -15 16 -15 23 0 11 -24 -14 -28 -18 -3 -23 3 -28
27 -7 33 -24 33 -24 1 0 -13 -9 -22 -25 -26 -36 -9 -44 4 -16 25 l24 19 -21 6
c-21 7 -27 17 -18 27 3 2 34 6 70 7 55 3 66 1 66 -12z m320 -76 c0 -5 -2 -10
-4 -10 -3 0 -8 5 -11 10 -3 6 -1 10 4 10 6 0 11 -4 11 -10z"/>
<path d="M6360 570 c0 -31 4 -40 18 -40 22 0 37 11 45 33 10 28 -3 47 -34 47
-27 0 -29 -3 -29 -40z"/>
<path d="M6135 580 c3 -5 31 -10 61 -10 30 0 54 5 54 10 0 6 -27 10 -61 10
-37 0 -58 -4 -54 -10z"/>
<path d="M6108 333 c12 -2 30 -2 40 0 9 3 -1 5 -23 4 -22 0 -30 -2 -17 -4z"/>
<path d="M6090 300 c0 -5 15 -10 34 -10 19 0 38 5 41 10 4 6 -10 10 -34 10
-23 0 -41 -4 -41 -10z"/>
<path d="M6108 263 c12 -2 30 -2 40 0 9 3 -1 5 -23 4 -22 0 -30 -2 -17 -4z"/>
<path d="M1521 454 c0 -11 3 -14 6 -6 3 7 2 16 -1 19 -3 4 -6 -2 -5 -13z"/>
<path d="M1291 254 c0 -11 3 -14 6 -6 3 7 2 16 -1 19 -3 4 -6 -2 -5 -13z"/>
</g>
</svg>
